<svg width="760" height="800" viewBox="0 0 760 800" fill="none" xmlns="http://www.w3.org/2000/svg">
<mask id="mask0_915_3" style="mask-type:alpha" maskUnits="userSpaceOnUse" x="0" y="0" width="760" height="800">
<path fill-rule="evenodd" clip-rule="evenodd" d="M182.666 744.658L379.638 322.251L576.375 744.157C598.738 792.113 655.743 812.861 703.7 790.499C751.656 768.136 772.404 711.131 750.042 663.175L466.605 55.3417C444.242 7.38506 387.237 -13.3631 339.281 8.9995C328.737 13.916 319.509 20.5069 311.765 28.308C303.955 36.0561 297.357 45.291 292.437 55.8433L8.9995 663.676C-13.3631 711.633 7.38508 768.638 55.3418 791C103.298 813.363 160.303 792.615 182.666 744.658ZM330.79 617.701C326.038 624.487 327.687 633.84 334.473 638.592C341.259 643.343 350.613 641.694 355.364 634.908L376.41 604.852V704.477H344.857C336.573 704.477 329.857 711.193 329.857 719.477C329.857 727.761 336.573 734.477 344.857 734.477H391.41H428.673C436.958 734.477 443.673 727.761 443.673 719.477C443.673 711.193 436.958 704.477 428.673 704.477H406.41V557.857C406.41 553.123 404.217 548.902 400.792 546.153C400.461 545.876 400.116 545.611 399.756 545.359C392.97 540.607 383.617 542.256 378.865 549.042L330.79 617.701Z" fill="#C4C4C4"/>
</mask>
<g mask="url(#mask0_915_3)">
<rect x="1135.5" y="262.953" width="424.408" height="848.816" transform="rotate(135 1135.5 262.953)" fill="#C03E3E"/>
<rect x="561.138" y="288.417" width="424.408" height="848.816" transform="rotate(135 561.138 288.417)" fill="#E14A4A"/>
<rect x="1110.04" y="837.318" width="424.408" height="848.816" transform="rotate(135 1110.04 837.318)" fill="#FF7D7D"/>
<rect x="579.891" y="818.564" width="414.918" height="879.307" transform="rotate(135 579.891 818.564)" fill="#FF5454"/>
</g>
</svg>
