<svg width="512" height="512" viewBox="0 0 512 512" fill="none" xmlns="http://www.w3.org/2000/svg">
<path d="M463.815 236.729V222.507H405.746V118.514H391.524V222.507H347.293V236.729H391.524V293.618H263.823V228.139H249.6V293.618H182.045V307.84H249.6V364.729H122.482V319.104H108.26V364.729H31.3604V378.951H108.26V435.84H31.3604V450.062H108.26V512H122.482V450.062H249.6V512H263.823V450.062H391.524V512H405.746V450.062H463.815V435.84H405.746V378.951H463.815V364.729H405.746V307.84H463.815V293.618H405.746V236.729H463.815ZM122.482 435.84V378.951H249.6V435.84H122.482V435.84ZM391.524 435.84H263.823V378.951H391.524V435.84V435.84ZM391.524 364.729H263.823V307.84H391.524V364.729V364.729Z" fill="#E1E8ED"/>
<path d="M441.6 93.7954H498.489V512H441.6V93.7954Z" fill="#CCD6DD"/>
<path d="M484.267 93.7954H498.489V512H484.267V93.7954Z" fill="#8899A6"/>
<path d="M356.267 145.181L299.378 179.556V512H356.267V145.181ZM157.156 297.486H214.045V512H157.156V297.486ZM14.9336 365.625H71.8225V512H14.9336V365.625Z" fill="#CCD6DD"/>
<path d="M57.5996 365.625H71.8218V512H57.5996V365.625ZM199.822 297.486H214.044V512H199.822V297.486ZM342.044 145.181H356.266V512H342.044V145.181Z" fill="#8899A6"/>
<path d="M267.435 232.931C184.149 303.317 92.3164 380.743 0 412.942V438.77C105.06 400.867 205.113 315.605 289.607 243.57C357.717 185.5 422.059 130.659 456.917 130.659C477.682 130.659 495.972 137.955 512 149.675V124.274C496.213 115.015 478.009 109.34 456.917 109.34C413.668 109.34 342.642 169.372 267.435 232.931V232.931Z" fill="#CCD6DD"/>
<path d="M456.917 66.6738C398.052 66.6738 324.764 128.612 239.886 200.348C163.883 264.576 80.3982 335.047 0 367.502V412.956C92.3164 380.743 184.149 303.332 267.435 232.946C342.642 169.387 413.668 109.355 456.917 109.355C478.009 109.355 496.213 115.029 512 124.288V76.5014C495.588 70.2721 477.312 66.6738 456.917 66.6738V66.6738Z" fill="#DD2E44"/>
<path d="M155.193 205.113L149.959 209.237C147.939 210.83 145.01 210.475 143.431 208.469L130.375 191.915C128.782 189.895 129.138 186.965 131.143 185.387L136.377 181.262C138.396 179.669 141.326 180.025 142.905 182.03L155.961 198.585C157.554 200.605 157.212 203.52 155.193 205.113ZM204.089 167.68L198.855 171.805C196.835 173.397 193.906 173.042 192.327 171.037L179.271 154.482C177.678 152.462 178.034 149.533 180.039 147.954L185.273 143.829C187.292 142.237 190.222 142.592 191.801 144.597L204.857 161.152C206.45 163.172 206.108 166.087 204.089 167.68ZM296.818 93.6108L291.584 97.7352C289.564 99.3281 286.635 98.9725 285.056 96.9672L272 80.4125C270.407 78.393 270.763 75.4632 272.768 73.8846L278.002 69.7601C280.021 68.1672 282.951 68.5228 284.53 70.5281L297.586 87.0828C299.193 89.0881 298.837 92.0179 296.818 93.6108ZM346.183 55.7228L340.949 59.8472C338.93 61.4401 336 61.0845 334.421 59.0792L321.365 42.5246C319.772 40.505 320.128 37.5752 322.133 35.9965L327.367 31.8721C329.387 30.2792 332.316 30.6348 333.895 32.6401L346.951 49.1948C348.544 51.2001 348.203 54.1299 346.183 55.7228V55.7228ZM224.839 193.365C221.753 193.365 218.681 192.029 216.576 189.454C212.85 184.903 213.518 178.176 218.083 174.45L238.123 158.066C242.688 154.34 249.415 154.994 253.141 159.573C256.867 164.125 256.199 170.852 251.634 174.578L231.595 190.962C229.603 192.569 227.214 193.365 224.839 193.365V193.365Z" fill="#1C6399"/>
<path d="M132.963 200.092C144.626 214.94 142.578 224.711 135.154 230.542C127.73 236.373 117.746 236.046 106.083 221.212C94.4211 206.379 90.9793 189.611 98.4033 183.78C105.842 177.934 121.301 185.244 132.963 200.092Z" fill="#EA596E"/>
<path d="M181.262 162.148C192.924 176.996 190.876 186.766 183.452 192.597C176.028 198.428 166.044 198.101 154.382 183.268C142.72 168.434 139.278 151.666 146.702 145.835C154.14 139.989 169.6 147.3 181.262 162.148V162.148Z" fill="#A6D388"/>
<path d="M193.408 165.973L109.61 231.808C87.9642 248.818 101.02 288.839 104.889 293.76C109.027 299.036 116.679 299.961 121.955 295.808L228.039 212.466C238.592 204.174 240.426 188.899 232.135 178.347L226.361 170.994C218.069 160.427 203.321 158.179 193.408 165.973V165.973Z" fill="#3B94D9"/>
<path d="M272.754 86.8693C284.416 101.717 282.368 111.488 274.944 117.319C267.52 123.15 257.536 122.823 245.888 107.975C234.226 93.1271 230.784 76.3733 238.222 70.5422C245.632 64.7111 261.092 72.0213 272.754 86.8693V86.8693Z" fill="#F4900C"/>
<path d="M321.82 48.1706C333.483 63.0186 331.435 72.7892 324.011 78.6203C316.587 84.4515 306.603 84.1243 294.955 69.2763C283.292 54.4283 279.851 37.6746 287.289 31.8435C294.699 26.0123 310.172 33.3226 321.82 48.1706V48.1706Z" fill="#AA8DD8"/>
<path d="M333.212 52.7501L249.4 118.585C227.754 135.58 240.81 175.616 244.679 180.537C248.817 185.813 256.469 186.738 261.745 182.585L367.843 99.2568C378.396 90.9652 380.231 75.6906 371.939 65.1377L366.165 57.7848C357.873 47.2177 343.111 44.9706 333.212 52.7501V52.7501Z" fill="#3B94D9"/>
<path d="M129.365 296.363C127.26 296.363 125.17 295.424 123.762 293.632C121.33 290.546 121.884 286.066 124.985 283.648L225.379 205.212C228.437 202.823 232.917 203.335 235.349 206.435C237.781 209.522 237.226 214.002 234.126 216.419L133.731 294.855C132.451 295.879 130.915 296.363 129.365 296.363V296.363ZM268.558 183.922C266.453 183.922 264.362 182.983 262.954 181.191C260.522 178.105 261.077 173.625 264.178 171.207L364.572 92.7715C367.644 90.3679 372.11 90.8942 374.542 93.9946C376.974 97.0808 376.419 101.561 373.319 103.979L272.924 182.414C271.63 183.424 270.094 183.922 268.558 183.922V183.922Z" fill="#E1E8ED"/>
<mask id="mask0_259_89" style="mask-type:alpha" maskUnits="userSpaceOnUse" x="367" y="331" width="115" height="159">
<path d="M438.869 331.332H377.8C371.873 331.332 367.023 336.19 367.023 342.127V478.873C367.023 484.811 371.873 489.669 377.8 489.669H471.199C477.126 489.669 481.976 484.811 481.976 478.873V374.514L438.869 331.332Z" fill="white"/>
</mask>
<g mask="url(#mask0_259_89)">
<path d="M438.869 331.332H377.8C371.873 331.332 367.023 336.19 367.023 342.127V478.873C367.023 484.811 371.873 489.669 377.8 489.669H471.199C477.126 489.669 481.976 484.811 481.976 478.873V374.514L456.83 356.522L438.869 331.332Z" fill="#0F9D58"/>
</g>
<mask id="mask1_259_89" style="mask-type:alpha" maskUnits="userSpaceOnUse" x="367" y="331" width="115" height="159">
<path d="M438.869 331.332H377.8C371.873 331.332 367.023 336.19 367.023 342.127V478.873C367.023 484.811 371.873 489.669 377.8 489.669H471.199C477.126 489.669 481.976 484.811 481.976 478.873V374.514L438.869 331.332Z" fill="white"/>
</mask>
<g mask="url(#mask1_259_89)">
<path d="M395.762 408.701V460.88H453.238V408.701H395.762ZM420.908 453.683H402.946V444.686H420.908V453.683ZM420.908 439.289H402.946V430.292H420.908V439.289ZM420.908 424.894H402.946V415.898H420.908V424.894ZM446.053 453.683H428.092V444.686H446.053V453.683ZM446.053 439.289H428.092V430.292H446.053V439.289ZM446.053 424.894H428.092V415.898H446.053V424.894Z" fill="#F1F1F1"/>
</g>
<mask id="mask2_259_89" style="mask-type:alpha" maskUnits="userSpaceOnUse" x="367" y="331" width="115" height="159">
<path d="M438.869 331.332H377.8C371.873 331.332 367.023 336.19 367.023 342.127V478.873C367.023 484.811 371.873 489.669 377.8 489.669H471.199C477.126 489.669 481.976 484.811 481.976 478.873V374.514L438.869 331.332Z" fill="white"/>
</mask>
<g mask="url(#mask2_259_89)">
<path d="M442.021 371.356L481.975 411.373V374.514L442.021 371.356Z" fill="url(#paint0_linear_259_89)"/>
</g>
<mask id="mask3_259_89" style="mask-type:alpha" maskUnits="userSpaceOnUse" x="367" y="331" width="115" height="159">
<path d="M438.869 331.332H377.8C371.873 331.332 367.023 336.19 367.023 342.127V478.873C367.023 484.811 371.873 489.669 377.8 489.669H471.199C477.126 489.669 481.976 484.811 481.976 478.873V374.514L438.869 331.332Z" fill="white"/>
</mask>
<g mask="url(#mask3_259_89)">
<path d="M438.869 331.332V363.719C438.869 369.683 443.692 374.514 449.646 374.514H481.976L438.869 331.332Z" fill="#87CEAC"/>
</g>
<mask id="mask4_259_89" style="mask-type:alpha" maskUnits="userSpaceOnUse" x="367" y="331" width="115" height="159">
<path d="M438.869 331.332H377.8C371.873 331.332 367.023 336.19 367.023 342.127V478.873C367.023 484.811 371.873 489.669 377.8 489.669H471.199C477.126 489.669 481.976 484.811 481.976 478.873V374.514L438.869 331.332Z" fill="white"/>
</mask>
<g mask="url(#mask4_259_89)">
<path d="M377.8 331.332C371.873 331.332 367.023 336.19 367.023 342.127V343.027C367.023 337.089 371.873 332.231 377.8 332.231H438.869V331.332H377.8Z" fill="white" fill-opacity="0.2"/>
</g>
<mask id="mask5_259_89" style="mask-type:alpha" maskUnits="userSpaceOnUse" x="367" y="331" width="115" height="159">
<path d="M438.869 331.332H377.8C371.873 331.332 367.023 336.19 367.023 342.127V478.873C367.023 484.811 371.873 489.669 377.8 489.669H471.199C477.126 489.669 481.976 484.811 481.976 478.873V374.514L438.869 331.332Z" fill="white"/>
</mask>
<g mask="url(#mask5_259_89)">
<path d="M471.199 488.769H377.8C371.873 488.769 367.023 483.911 367.023 477.973V478.873C367.023 484.81 371.873 489.669 377.8 489.669H471.199C477.126 489.669 481.976 484.81 481.976 478.873V477.973C481.976 483.911 477.126 488.769 471.199 488.769Z" fill="#263238" fill-opacity="0.2"/>
</g>
<mask id="mask6_259_89" style="mask-type:alpha" maskUnits="userSpaceOnUse" x="367" y="331" width="115" height="159">
<path d="M438.869 331.332H377.8C371.873 331.332 367.023 336.19 367.023 342.127V478.873C367.023 484.811 371.873 489.669 377.8 489.669H471.199C477.126 489.669 481.976 484.811 481.976 478.873V374.514L438.869 331.332Z" fill="white"/>
</mask>
<g mask="url(#mask6_259_89)">
<path d="M449.646 374.514C443.692 374.514 438.869 369.683 438.869 363.719V364.618C438.869 370.583 443.692 375.414 449.646 375.414H481.976V374.514H449.646Z" fill="#263238" fill-opacity="0.1"/>
</g>
<path d="M438.869 331.332H377.8C371.873 331.332 367.023 336.19 367.023 342.127V478.873C367.023 484.811 371.873 489.669 377.8 489.669H471.199C477.126 489.669 481.976 484.811 481.976 478.873V374.514L438.869 331.332Z" fill="url(#paint1_radial_259_89)"/>
<defs>
<linearGradient id="paint0_linear_259_89" x1="462" y1="374.792" x2="462" y2="411.378" gradientUnits="userSpaceOnUse">
<stop stop-color="#263238" stop-opacity="0.2"/>
<stop offset="1" stop-color="#263238" stop-opacity="0.02"/>
</linearGradient>
<radialGradient id="paint1_radial_259_89" cx="0" cy="0" r="1" gradientUnits="userSpaceOnUse" gradientTransform="translate(370.665 334.479) scale(185.359 185.685)">
<stop stop-color="white" stop-opacity="0.1"/>
<stop offset="1" stop-color="white" stop-opacity="0"/>
</radialGradient>
</defs>
</svg>
