<svg width="512" height="512" viewBox="0 0 512 512" fill="none" xmlns="http://www.w3.org/2000/svg">
<g clip-path="url(#clip0_258_70)">
<mask id="mask0_258_70" style="mask-type:alpha" maskUnits="userSpaceOnUse" x="0" y="1" width="512" height="512">
<circle cx="256" cy="257" r="256" fill="#C4C4C4"/>
</mask>
<g mask="url(#mask0_258_70)">
<path d="M512 0H0V512H512V0Z" fill="#000D17"/>
<path d="M511.711 240.356C471.837 237.826 431.883 235.295 404.41 218.611C376.855 201.858 361.7 171.018 334.632 149.41C307.563 127.802 268.501 115.357 248.483 91.971C228.547 68.6535 227.655 34.3267 226.845 0H511.711V240.356Z" fill="#0066FF"/>
<path d="M0 273.896C40.6399 273.489 81.2799 273.083 108.025 291.982C134.851 310.949 147.782 349.154 161.275 375.979C174.848 402.804 188.984 418.113 209.223 438.909C229.543 459.637 255.967 485.853 282.311 512H0V273.896Z" fill="#0066FF"/>
<g filter="url(#filter0_d_258_70)">
<path fill-rule="evenodd" clip-rule="evenodd" d="M181 312.42C181 314.422 182.623 316.045 184.624 316.045H192.779C194.781 316.045 196.404 317.668 196.404 319.671V327.375C196.404 329.377 198.026 331 200.028 331H327.789C329.79 331 331.413 329.377 331.413 327.375V289.761C331.413 287.759 329.79 286.136 327.789 286.136H320.313C318.312 286.136 316.689 284.513 316.689 282.511V259.625C316.689 257.623 318.312 256 320.313 256H328.015C330.017 256 331.64 254.377 331.64 252.375V199.58C331.64 197.578 330.017 195.955 328.015 195.955H320.087C318.085 195.955 316.462 194.332 316.462 192.329V184.625C316.462 182.623 314.84 181 312.838 181H185.077C183.076 181 181.453 182.623 181.453 184.625V222.239C181.453 224.241 183.076 225.864 185.077 225.864H207.73C209.732 225.864 211.354 227.487 211.354 229.489V237.193C211.354 239.196 209.732 240.819 207.73 240.819H199.802C197.8 240.819 196.177 242.442 196.177 244.444V252.148C196.177 254.15 194.555 255.773 192.553 255.773H184.624C182.623 255.773 181 257.397 181 259.399V312.42ZM196.404 199.58C196.404 197.578 198.026 195.955 200.028 195.955H297.887C299.889 195.955 301.512 197.578 301.512 199.58V222.239C301.512 224.241 299.889 225.864 297.887 225.864H290.185C288.184 225.864 286.561 227.487 286.561 229.489V237.193C286.561 239.196 284.938 240.819 282.937 240.819H275.008C273.006 240.819 271.384 242.442 271.384 244.444V252.148C271.384 254.15 269.761 255.773 267.759 255.773H259.831C257.829 255.773 256.207 257.397 256.207 259.399V267.329C256.207 269.332 254.584 270.955 252.582 270.955H244.654C242.652 270.955 241.029 272.578 241.029 274.58V282.737C241.029 284.739 242.652 286.363 244.654 286.363H297.887C299.889 286.363 301.512 287.986 301.512 289.988V297.692C301.512 299.694 299.889 301.317 297.887 301.317H199.802C197.8 301.317 196.177 299.694 196.177 297.692V274.58C196.177 272.578 197.8 270.955 199.802 270.955H207.73C209.732 270.955 211.354 269.332 211.354 267.329V259.625C211.354 257.623 212.977 256 214.979 256H222.907C224.909 256 226.532 254.377 226.532 252.375V244.444C226.532 242.442 228.154 240.819 230.156 240.819H237.631C239.633 240.819 241.256 239.196 241.256 237.193V229.489C241.256 227.487 242.879 225.864 244.88 225.864H252.809C254.81 225.864 256.433 224.241 256.433 222.239V214.308C256.433 212.306 254.81 210.683 252.809 210.683H200.028C198.026 210.683 196.404 209.06 196.404 207.057V199.58Z" fill="#0066FF"/>
</g>
</g>
<rect x="-2.5" y="2.5" width="59" height="59" rx="29.5" transform="matrix(-1 0 0 1 349 289)" fill="#0066FF"/>
<path d="M313.5 310.833L297.5 340.166" stroke="black" stroke-width="5" stroke-linecap="round" stroke-linejoin="round"/>
<path d="M328.5 310.5H293.5" stroke="black" stroke-width="5" stroke-linecap="round" stroke-linejoin="round"/>
<path d="M335.333 321L319.333 291.667" stroke="black" stroke-width="5" stroke-linecap="round" stroke-linejoin="round"/>
<path d="M330.5 331.166L346.5 301.833" stroke="black" stroke-width="5" stroke-linecap="round" stroke-linejoin="round"/>
<path d="M315 331.5L348.5 331.5" stroke="black" stroke-width="5" stroke-linecap="round" stroke-linejoin="round"/>
<path d="M308.667 321L324.667 350.333" stroke="black" stroke-width="5" stroke-linecap="round" stroke-linejoin="round"/>
<rect x="-2.5" y="2.5" width="59" height="59" rx="29.5" transform="matrix(-1 0 0 1 349 289)" stroke="black" stroke-width="5"/>
</g>
<defs>
<filter id="filter0_d_258_70" x="177" y="177" width="158.64" height="158" filterUnits="userSpaceOnUse" color-interpolation-filters="sRGB">
<feFlood flood-opacity="0" result="BackgroundImageFix"/>
<feColorMatrix in="SourceAlpha" type="matrix" values="0 0 0 0 0 0 0 0 0 0 0 0 0 0 0 0 0 0 127 0" result="hardAlpha"/>
<feOffset/>
<feGaussianBlur stdDeviation="2"/>
<feComposite in2="hardAlpha" operator="out"/>
<feColorMatrix type="matrix" values="0 0 0 0 0 0 0 0 0 0 0 0 0 0 0 0 0 0 0.25 0"/>
<feBlend mode="normal" in2="BackgroundImageFix" result="effect1_dropShadow_258_70"/>
<feBlend mode="normal" in="SourceGraphic" in2="effect1_dropShadow_258_70" result="shape"/>
</filter>
<clipPath id="clip0_258_70">
<rect width="512" height="512" rx="256" fill="white"/>
</clipPath>
</defs>
</svg>
