<svg width="512" height="512" viewBox="0 0 512 512" fill="none" xmlns="http://www.w3.org/2000/svg">
<path d="M512 455.111C512 486.528 486.528 512 455.111 512H56.8889C25.472 512 0 486.528 0 455.111V56.8889C0 25.472 25.472 0 56.8889 0H455.111C486.528 0 512 25.472 512 56.8889V455.111Z" fill="#3B88C3"/>
<path d="M136.719 86.6989H120.775C107.805 86.6989 102.4 77.2411 102.4 68.0535C102.4 58.5957 109.156 49.4082 120.775 49.4082H159.147C170.767 49.4082 177.252 57.7851 177.252 68.594V222.336C177.252 235.847 168.605 243.399 156.985 243.399C145.366 243.399 136.719 235.833 136.719 222.336V86.6989ZM209.664 323.172C209.664 340.182 202.368 355.044 187.506 364.502C206.962 373.419 220.473 391.524 220.473 412.857C220.473 445.284 190.749 472.562 152.377 472.562C112.384 472.562 87.5381 443.122 87.5381 421.774C87.5381 411.25 98.6172 403.684 108.345 403.684C126.706 403.684 122.397 435.3 152.918 435.3C166.969 435.3 178.319 424.491 178.319 410.169C178.319 372.338 132.381 400.171 132.381 368.299C132.381 339.926 170.752 359.111 170.752 329.117C170.752 318.848 163.456 311.012 151.296 311.012C125.625 311.012 129.138 337.494 110.763 337.494C99.6839 337.494 93.1985 327.495 93.1985 317.497C93.1985 296.434 122.112 273.735 152.107 273.735C191.019 273.721 209.664 302.08 209.664 323.172V323.172ZM399.858 206.109C411.748 206.109 420.907 211.513 420.907 223.943C420.907 236.374 411.748 241.778 401.465 241.778H311.211C299.335 241.778 290.162 236.374 290.162 223.943C290.162 218.269 293.661 213.405 296.377 210.162C318.806 183.41 343.111 159.104 363.634 129.38C368.512 122.354 373.106 113.977 373.106 104.249C373.106 93.17 364.715 83.442 353.65 83.442C322.574 83.442 337.437 127.218 311.495 127.218C298.525 127.218 291.769 118.03 291.769 107.492C291.769 73.4438 322.034 46.1655 355.271 46.1655C388.494 46.1655 415.247 68.0535 415.247 102.358C415.247 139.918 373.376 177.195 350.407 206.109H399.858V206.109ZM301.241 426.923C288 426.923 282.326 418.006 282.326 410.98C282.326 405.035 284.487 401.792 286.123 399.09L346.638 289.394C352.583 278.585 360.15 273.721 374.201 273.721C389.874 273.721 405.263 283.719 405.263 308.31V391.254H409.856C420.395 391.254 428.772 398.279 428.772 409.088C428.772 419.897 420.395 426.923 409.856 426.923H405.263V449.878C405.263 464.199 399.602 470.969 385.821 470.969C372.039 470.969 366.365 464.199 366.365 449.878V426.923H301.241ZM366.351 315.876H365.81L329.344 391.254H366.365V315.876H366.351Z" fill="white"/>
</svg>
