<svg width="512" height="510" viewBox="0 0 512 510" fill="none" xmlns="http://www.w3.org/2000/svg">
<g clip-path="url(#clip0_258_59)">
<mask id="mask0_258_59" style="mask-type:alpha" maskUnits="userSpaceOnUse" x="-1" y="-1" width="512" height="512">
<circle cx="255" cy="255" r="256" fill="#C4C4C4"/>
</mask>
<g mask="url(#mask0_258_59)">
<path d="M512 0H0V512H512V0Z" fill="#000D17"/>
<path d="M0 273.896C40.6399 273.489 81.2799 273.083 108.025 291.982C134.851 310.949 147.782 349.154 161.275 375.979C174.848 402.804 188.984 418.113 209.223 438.909C229.543 459.637 255.967 485.853 282.311 512H0V273.896Z" fill="#1BE253"/>
<path d="M511.711 240.356C471.837 237.826 431.883 235.295 404.41 218.611C376.855 201.858 361.7 171.018 334.632 149.41C307.563 127.802 268.501 115.357 248.483 91.971C228.547 68.6535 227.655 34.3267 226.845 0H511.711V240.356Z" fill="#1BE253"/>
<path fill-rule="evenodd" clip-rule="evenodd" d="M180.681 312.92C180.681 314.922 182.303 316.545 184.305 316.545H192.46C194.462 316.545 196.084 318.168 196.084 320.171V327.875C196.084 329.877 197.707 331.5 199.709 331.5H327.469C329.471 331.5 331.093 329.877 331.093 327.875V290.261C331.093 288.259 329.471 286.636 327.469 286.636H319.994C317.992 286.636 316.369 285.013 316.369 283.011V260.125C316.369 258.123 317.992 256.5 319.994 256.5H327.695C329.697 256.5 331.32 254.877 331.32 252.875V200.08C331.32 198.078 329.697 196.455 327.695 196.455H319.767C317.765 196.455 316.143 194.831 316.143 192.829V185.125C316.143 183.123 314.52 181.5 312.518 181.5H184.758C182.756 181.5 181.134 183.123 181.134 185.125V222.739C181.134 224.741 182.756 226.364 184.758 226.364H207.411C209.412 226.364 211.035 227.987 211.035 229.989V237.693C211.035 239.696 209.412 241.319 207.411 241.319H199.482C197.481 241.319 195.858 242.942 195.858 244.944V252.648C195.858 254.65 194.235 256.273 192.233 256.273H184.305C182.303 256.273 180.681 257.897 180.681 259.899V312.92ZM196.084 200.08C196.084 198.078 197.707 196.455 199.709 196.455H297.567C299.569 196.455 301.192 198.078 301.192 200.08V222.739C301.192 224.741 299.569 226.364 297.567 226.364H289.866C287.864 226.364 286.241 227.987 286.241 229.989V237.693C286.241 239.696 284.618 241.319 282.617 241.319H274.689C272.687 241.319 271.064 242.942 271.064 244.944V252.648C271.064 254.65 269.442 256.273 267.44 256.273H259.512C257.51 256.273 255.887 257.897 255.887 259.899V267.829C255.887 269.831 254.264 271.455 252.263 271.455H244.334C242.333 271.455 240.71 273.078 240.71 275.08V283.237C240.71 285.239 242.333 286.863 244.334 286.863H297.567C299.569 286.863 301.192 288.486 301.192 290.488V298.192C301.192 300.194 299.569 301.817 297.567 301.817H199.482C197.481 301.817 195.858 300.194 195.858 298.192V275.08C195.858 273.078 197.481 271.455 199.482 271.455H207.411C209.412 271.455 211.035 269.831 211.035 267.829V260.125C211.035 258.123 212.658 256.5 214.659 256.5H222.588C224.59 256.5 226.212 254.877 226.212 252.875V244.944C226.212 242.942 227.835 241.319 229.837 241.319H237.312C239.314 241.319 240.936 239.696 240.936 237.693V229.989C240.936 227.987 242.559 226.364 244.561 226.364H252.489C254.491 226.364 256.114 224.741 256.114 222.739V214.808C256.114 212.806 254.491 211.183 252.489 211.183H199.709C197.707 211.183 196.084 209.56 196.084 207.557V200.08Z" fill="url(#paint0_radial_258_59)"/>
<path fill-rule="evenodd" clip-rule="evenodd" d="M180.681 312.92C180.681 314.922 182.303 316.545 184.305 316.545H192.46C194.462 316.545 196.084 318.168 196.084 320.171V327.875C196.084 329.877 197.707 331.5 199.709 331.5H327.469C329.471 331.5 331.093 329.877 331.093 327.875V290.261C331.093 288.259 329.471 286.636 327.469 286.636H319.994C317.992 286.636 316.369 285.013 316.369 283.011V260.125C316.369 258.123 317.992 256.5 319.994 256.5H327.695C329.697 256.5 331.32 254.877 331.32 252.875V200.08C331.32 198.078 329.697 196.455 327.695 196.455H319.767C317.765 196.455 316.143 194.831 316.143 192.829V185.125C316.143 183.123 314.52 181.5 312.518 181.5H184.758C182.756 181.5 181.134 183.123 181.134 185.125V222.739C181.134 224.741 182.756 226.364 184.758 226.364H207.411C209.412 226.364 211.035 227.987 211.035 229.989V237.693C211.035 239.696 209.412 241.319 207.411 241.319H199.482C197.481 241.319 195.858 242.942 195.858 244.944V252.648C195.858 254.65 194.235 256.273 192.233 256.273H184.305C182.303 256.273 180.681 257.897 180.681 259.899V312.92ZM196.084 200.08C196.084 198.078 197.707 196.455 199.709 196.455H297.567C299.569 196.455 301.192 198.078 301.192 200.08V222.739C301.192 224.741 299.569 226.364 297.567 226.364H289.866C287.864 226.364 286.241 227.987 286.241 229.989V237.693C286.241 239.696 284.618 241.319 282.617 241.319H274.689C272.687 241.319 271.064 242.942 271.064 244.944V252.648C271.064 254.65 269.442 256.273 267.44 256.273H259.512C257.51 256.273 255.887 257.897 255.887 259.899V267.829C255.887 269.831 254.264 271.455 252.263 271.455H244.334C242.333 271.455 240.71 273.078 240.71 275.08V283.237C240.71 285.239 242.333 286.863 244.334 286.863H297.567C299.569 286.863 301.192 288.486 301.192 290.488V298.192C301.192 300.194 299.569 301.817 297.567 301.817H199.482C197.481 301.817 195.858 300.194 195.858 298.192V275.08C195.858 273.078 197.481 271.455 199.482 271.455H207.411C209.412 271.455 211.035 269.831 211.035 267.829V260.125C211.035 258.123 212.658 256.5 214.659 256.5H222.588C224.59 256.5 226.212 254.877 226.212 252.875V244.944C226.212 242.942 227.835 241.319 229.837 241.319H237.312C239.314 241.319 240.936 239.696 240.936 237.693V229.989C240.936 227.987 242.559 226.364 244.561 226.364H252.489C254.491 226.364 256.114 224.741 256.114 222.739V214.808C256.114 212.806 254.491 211.183 252.489 211.183H199.709C197.707 211.183 196.084 209.56 196.084 207.557V200.08Z" fill="url(#paint1_linear_258_59)" fill-opacity="0.4"/>
<path fill-rule="evenodd" clip-rule="evenodd" d="M180.681 312.92C180.681 314.922 182.303 316.545 184.305 316.545H192.46C194.462 316.545 196.084 318.168 196.084 320.171V327.875C196.084 329.877 197.707 331.5 199.709 331.5H327.469C329.471 331.5 331.093 329.877 331.093 327.875V290.261C331.093 288.259 329.471 286.636 327.469 286.636H319.994C317.992 286.636 316.369 285.013 316.369 283.011V260.125C316.369 258.123 317.992 256.5 319.994 256.5H327.695C329.697 256.5 331.32 254.877 331.32 252.875V200.08C331.32 198.078 329.697 196.455 327.695 196.455H319.767C317.765 196.455 316.143 194.831 316.143 192.829V185.125C316.143 183.123 314.52 181.5 312.518 181.5H184.758C182.756 181.5 181.134 183.123 181.134 185.125V222.739C181.134 224.741 182.756 226.364 184.758 226.364H207.411C209.412 226.364 211.035 227.987 211.035 229.989V237.693C211.035 239.696 209.412 241.319 207.411 241.319H199.482C197.481 241.319 195.858 242.942 195.858 244.944V252.648C195.858 254.65 194.235 256.273 192.233 256.273H184.305C182.303 256.273 180.681 257.897 180.681 259.899V312.92ZM196.084 200.08C196.084 198.078 197.707 196.455 199.709 196.455H297.567C299.569 196.455 301.192 198.078 301.192 200.08V222.739C301.192 224.741 299.569 226.364 297.567 226.364H289.866C287.864 226.364 286.241 227.987 286.241 229.989V237.693C286.241 239.696 284.618 241.319 282.617 241.319H274.689C272.687 241.319 271.064 242.942 271.064 244.944V252.648C271.064 254.65 269.442 256.273 267.44 256.273H259.512C257.51 256.273 255.887 257.897 255.887 259.899V267.829C255.887 269.831 254.264 271.455 252.263 271.455H244.334C242.333 271.455 240.71 273.078 240.71 275.08V283.237C240.71 285.239 242.333 286.863 244.334 286.863H297.567C299.569 286.863 301.192 288.486 301.192 290.488V298.192C301.192 300.194 299.569 301.817 297.567 301.817H199.482C197.481 301.817 195.858 300.194 195.858 298.192V275.08C195.858 273.078 197.481 271.455 199.482 271.455H207.411C209.412 271.455 211.035 269.831 211.035 267.829V260.125C211.035 258.123 212.658 256.5 214.659 256.5H222.588C224.59 256.5 226.212 254.877 226.212 252.875V244.944C226.212 242.942 227.835 241.319 229.837 241.319H237.312C239.314 241.319 240.936 239.696 240.936 237.693V229.989C240.936 227.987 242.559 226.364 244.561 226.364H252.489C254.491 226.364 256.114 224.741 256.114 222.739V214.808C256.114 212.806 254.491 211.183 252.489 211.183H199.709C197.707 211.183 196.084 209.56 196.084 207.557V200.08Z" fill="#16D34B"/>
</g>
</g>
<defs>
<radialGradient id="paint0_radial_258_59" cx="0" cy="0" r="1" gradientUnits="userSpaceOnUse" gradientTransform="translate(325.117 300.494) rotate(-164.903) scale(71.5878 19.8605)">
<stop stop-color="#3F815B"/>
<stop offset="1" stop-color="#3F815B" stop-opacity="0"/>
</radialGradient>
<linearGradient id="paint1_linear_258_59" x1="189.542" y1="215.857" x2="234.782" y2="336.651" gradientUnits="userSpaceOnUse">
<stop stop-color="white"/>
<stop offset="1" stop-opacity="0"/>
</linearGradient>
<clipPath id="clip0_258_59">
<rect width="512" height="512" fill="white"/>
</clipPath>
</defs>
</svg>
