<svg width="160" height="159" viewBox="0 0 160 159" fill="none" xmlns="http://www.w3.org/2000/svg">
<g filter="url(#filter0_d_68_181)">
<path fill-rule="evenodd" clip-rule="evenodd" d="M4.68018 135.92C4.68018 137.922 6.30288 139.545 8.30459 139.545H16.4595C18.4612 139.545 20.0839 141.168 20.0839 143.171V150.875C20.0839 152.877 21.7066 154.5 23.7083 154.5H151.469C153.471 154.5 155.093 152.877 155.093 150.875V113.261C155.093 111.259 153.471 109.636 151.469 109.636H143.994C141.992 109.636 140.369 108.013 140.369 106.011V83.1254C140.369 81.1231 141.992 79.5 143.994 79.5H151.695C153.697 79.5 155.32 77.8769 155.32 75.8746V23.0801C155.32 21.0778 153.697 19.4547 151.695 19.4547H143.767C141.765 19.4547 140.143 17.8315 140.143 15.8293V8.12538C140.143 6.12314 138.52 4.5 136.518 4.5H8.75764C6.75593 4.5 5.13323 6.12314 5.13323 8.12538V45.7387C5.13323 47.7409 6.75593 49.364 8.75764 49.364H31.4102C33.4119 49.364 35.0346 50.9872 35.0346 52.9894V60.6934C35.0346 62.6956 33.4119 64.3187 31.4102 64.3187H23.4818C21.4801 64.3187 19.8574 65.9419 19.8574 67.9441V75.648C19.8574 77.6503 18.2347 79.2734 16.233 79.2734H8.30459C6.30288 79.2734 4.68018 80.8966 4.68018 82.8988V135.92ZM20.0839 23.0801C20.0839 21.0778 21.7066 19.4547 23.7083 19.4547H121.567C123.569 19.4547 125.192 21.0778 125.192 23.0801V45.7387C125.192 47.7409 123.569 49.364 121.567 49.364H113.866C111.864 49.364 110.241 50.9872 110.241 52.9894V60.6934C110.241 62.6956 108.618 64.3187 106.617 64.3187H98.6884C96.6867 64.3187 95.064 65.9419 95.064 67.9441V75.648C95.064 77.6503 93.4413 79.2734 91.4396 79.2734H83.5111C81.5094 79.2734 79.8867 80.8966 79.8867 82.8988V90.8293C79.8867 92.8315 78.264 94.4547 76.2623 94.4547H68.3339C66.3322 94.4547 64.7095 96.0778 64.7095 98.0801V106.237C64.7095 108.239 66.3322 109.863 68.3339 109.863H121.567C123.569 109.863 125.192 111.486 125.192 113.488V121.192C125.192 123.194 123.569 124.817 121.567 124.817H23.4818C21.4801 124.817 19.8574 123.194 19.8574 121.192V98.0801C19.8574 96.0778 21.4801 94.4547 23.4818 94.4547H31.4102C33.4119 94.4547 35.0346 92.8315 35.0346 90.8293V83.1254C35.0346 81.1231 36.6573 79.5 38.659 79.5H46.5874C48.5892 79.5 50.2119 77.8769 50.2119 75.8746V67.9441C50.2119 65.9419 51.8346 64.3187 53.8363 64.3187H61.3116C63.3133 64.3187 64.936 62.6956 64.936 60.6934V52.9894C64.936 50.9872 66.5587 49.364 68.5604 49.364H76.4888C78.4906 49.364 80.1133 47.7409 80.1133 45.7387V37.8082C80.1133 35.8059 78.4906 34.1828 76.4888 34.1828H23.7083C21.7066 34.1828 20.0839 32.5596 20.0839 30.5574V23.0801Z" fill="url(#paint0_radial_68_181)"/>
<path fill-rule="evenodd" clip-rule="evenodd" d="M4.68018 135.92C4.68018 137.922 6.30288 139.545 8.30459 139.545H16.4595C18.4612 139.545 20.0839 141.168 20.0839 143.171V150.875C20.0839 152.877 21.7066 154.5 23.7083 154.5H151.469C153.471 154.5 155.093 152.877 155.093 150.875V113.261C155.093 111.259 153.471 109.636 151.469 109.636H143.994C141.992 109.636 140.369 108.013 140.369 106.011V83.1254C140.369 81.1231 141.992 79.5 143.994 79.5H151.695C153.697 79.5 155.32 77.8769 155.32 75.8746V23.0801C155.32 21.0778 153.697 19.4547 151.695 19.4547H143.767C141.765 19.4547 140.143 17.8315 140.143 15.8293V8.12538C140.143 6.12314 138.52 4.5 136.518 4.5H8.75764C6.75593 4.5 5.13323 6.12314 5.13323 8.12538V45.7387C5.13323 47.7409 6.75593 49.364 8.75764 49.364H31.4102C33.4119 49.364 35.0346 50.9872 35.0346 52.9894V60.6934C35.0346 62.6956 33.4119 64.3187 31.4102 64.3187H23.4818C21.4801 64.3187 19.8574 65.9419 19.8574 67.9441V75.648C19.8574 77.6503 18.2347 79.2734 16.233 79.2734H8.30459C6.30288 79.2734 4.68018 80.8966 4.68018 82.8988V135.92ZM20.0839 23.0801C20.0839 21.0778 21.7066 19.4547 23.7083 19.4547H121.567C123.569 19.4547 125.192 21.0778 125.192 23.0801V45.7387C125.192 47.7409 123.569 49.364 121.567 49.364H113.866C111.864 49.364 110.241 50.9872 110.241 52.9894V60.6934C110.241 62.6956 108.618 64.3187 106.617 64.3187H98.6884C96.6867 64.3187 95.064 65.9419 95.064 67.9441V75.648C95.064 77.6503 93.4413 79.2734 91.4396 79.2734H83.5111C81.5094 79.2734 79.8867 80.8966 79.8867 82.8988V90.8293C79.8867 92.8315 78.264 94.4547 76.2623 94.4547H68.3339C66.3322 94.4547 64.7095 96.0778 64.7095 98.0801V106.237C64.7095 108.239 66.3322 109.863 68.3339 109.863H121.567C123.569 109.863 125.192 111.486 125.192 113.488V121.192C125.192 123.194 123.569 124.817 121.567 124.817H23.4818C21.4801 124.817 19.8574 123.194 19.8574 121.192V98.0801C19.8574 96.0778 21.4801 94.4547 23.4818 94.4547H31.4102C33.4119 94.4547 35.0346 92.8315 35.0346 90.8293V83.1254C35.0346 81.1231 36.6573 79.5 38.659 79.5H46.5874C48.5892 79.5 50.2119 77.8769 50.2119 75.8746V67.9441C50.2119 65.9419 51.8346 64.3187 53.8363 64.3187H61.3116C63.3133 64.3187 64.936 62.6956 64.936 60.6934V52.9894C64.936 50.9872 66.5587 49.364 68.5604 49.364H76.4888C78.4906 49.364 80.1133 47.7409 80.1133 45.7387V37.8082C80.1133 35.8059 78.4906 34.1828 76.4888 34.1828H23.7083C21.7066 34.1828 20.0839 32.5596 20.0839 30.5574V23.0801Z" fill="url(#paint1_linear_68_181)" fill-opacity="0.4"/>
<path fill-rule="evenodd" clip-rule="evenodd" d="M4.68018 135.92C4.68018 137.922 6.30288 139.545 8.30459 139.545H16.4595C18.4612 139.545 20.0839 141.168 20.0839 143.171V150.875C20.0839 152.877 21.7066 154.5 23.7083 154.5H151.469C153.471 154.5 155.093 152.877 155.093 150.875V113.261C155.093 111.259 153.471 109.636 151.469 109.636H143.994C141.992 109.636 140.369 108.013 140.369 106.011V83.1254C140.369 81.1231 141.992 79.5 143.994 79.5H151.695C153.697 79.5 155.32 77.8769 155.32 75.8746V23.0801C155.32 21.0778 153.697 19.4547 151.695 19.4547H143.767C141.765 19.4547 140.143 17.8315 140.143 15.8293V8.12538C140.143 6.12314 138.52 4.5 136.518 4.5H8.75764C6.75593 4.5 5.13323 6.12314 5.13323 8.12538V45.7387C5.13323 47.7409 6.75593 49.364 8.75764 49.364H31.4102C33.4119 49.364 35.0346 50.9872 35.0346 52.9894V60.6934C35.0346 62.6956 33.4119 64.3187 31.4102 64.3187H23.4818C21.4801 64.3187 19.8574 65.9419 19.8574 67.9441V75.648C19.8574 77.6503 18.2347 79.2734 16.233 79.2734H8.30459C6.30288 79.2734 4.68018 80.8966 4.68018 82.8988V135.92ZM20.0839 23.0801C20.0839 21.0778 21.7066 19.4547 23.7083 19.4547H121.567C123.569 19.4547 125.192 21.0778 125.192 23.0801V45.7387C125.192 47.7409 123.569 49.364 121.567 49.364H113.866C111.864 49.364 110.241 50.9872 110.241 52.9894V60.6934C110.241 62.6956 108.618 64.3187 106.617 64.3187H98.6884C96.6867 64.3187 95.064 65.9419 95.064 67.9441V75.648C95.064 77.6503 93.4413 79.2734 91.4396 79.2734H83.5111C81.5094 79.2734 79.8867 80.8966 79.8867 82.8988V90.8293C79.8867 92.8315 78.264 94.4547 76.2623 94.4547H68.3339C66.3322 94.4547 64.7095 96.0778 64.7095 98.0801V106.237C64.7095 108.239 66.3322 109.863 68.3339 109.863H121.567C123.569 109.863 125.192 111.486 125.192 113.488V121.192C125.192 123.194 123.569 124.817 121.567 124.817H23.4818C21.4801 124.817 19.8574 123.194 19.8574 121.192V98.0801C19.8574 96.0778 21.4801 94.4547 23.4818 94.4547H31.4102C33.4119 94.4547 35.0346 92.8315 35.0346 90.8293V83.1254C35.0346 81.1231 36.6573 79.5 38.659 79.5H46.5874C48.5892 79.5 50.2119 77.8769 50.2119 75.8746V67.9441C50.2119 65.9419 51.8346 64.3187 53.8363 64.3187H61.3116C63.3133 64.3187 64.936 62.6956 64.936 60.6934V52.9894C64.936 50.9872 66.5587 49.364 68.5604 49.364H76.4888C78.4906 49.364 80.1133 47.7409 80.1133 45.7387V37.8082C80.1133 35.8059 78.4906 34.1828 76.4888 34.1828H23.7083C21.7066 34.1828 20.0839 32.5596 20.0839 30.5574V23.0801Z" fill="#16D34B"/>
</g>
<defs>
<filter id="filter0_d_68_181" x="0.680176" y="0.5" width="158.64" height="158" filterUnits="userSpaceOnUse" color-interpolation-filters="sRGB">
<feFlood flood-opacity="0" result="BackgroundImageFix"/>
<feColorMatrix in="SourceAlpha" type="matrix" values="0 0 0 0 0 0 0 0 0 0 0 0 0 0 0 0 0 0 127 0" result="hardAlpha"/>
<feOffset/>
<feGaussianBlur stdDeviation="2"/>
<feComposite in2="hardAlpha" operator="out"/>
<feColorMatrix type="matrix" values="0 0 0 0 0 0 0 0 0 0 0 0 0 0 0 0 0 0 0.25 0"/>
<feBlend mode="normal" in2="BackgroundImageFix" result="effect1_dropShadow_68_181"/>
<feBlend mode="normal" in="SourceGraphic" in2="effect1_dropShadow_68_181" result="shape"/>
</filter>
<radialGradient id="paint0_radial_68_181" cx="0" cy="0" r="1" gradientUnits="userSpaceOnUse" gradientTransform="translate(149.117 123.494) rotate(-164.903) scale(71.5878 19.8605)">
<stop stop-color="#3F815B"/>
<stop offset="1" stop-color="#3F815B" stop-opacity="0"/>
</radialGradient>
<linearGradient id="paint1_linear_68_181" x1="13.5413" y1="38.8575" x2="58.782" y2="159.651" gradientUnits="userSpaceOnUse">
<stop stop-color="white"/>
<stop offset="1" stop-opacity="0"/>
</linearGradient>
</defs>
</svg>
