<svg width="121" height="25" viewBox="0 0 121 25" fill="none" xmlns="http://www.w3.org/2000/svg">
<path d="M4.30859 19.0391H7.67188V22.4023H0.921875V0.804688H7.67188V4.15625H4.30859V19.0391ZM80.3633 18.8047C80.3633 19.0859 80.3125 19.3516 80.2109 19.6016C80.1094 19.8438 79.9688 20.0547 79.7891 20.2344C79.6094 20.4141 79.3984 20.5547 79.1562 20.6562C78.9141 20.7656 78.6523 20.8203 78.3711 20.8203C78.0977 20.8203 77.8359 20.7656 77.5859 20.6562C77.3438 20.5547 77.1289 20.4141 76.9414 20.2344C76.7617 20.0547 76.6172 19.8438 76.5078 19.6016C76.4062 19.3516 76.3555 19.0859 76.3555 18.8047C76.3555 18.5312 76.4062 18.2734 76.5078 18.0312C76.6172 17.7891 76.7617 17.5781 76.9414 17.3984C77.1289 17.2188 77.3438 17.0781 77.5859 16.9766C77.8359 16.8672 78.0977 16.8125 78.3711 16.8125C78.6523 16.8125 78.9141 16.8672 79.1562 16.9766C79.3984 17.0781 79.6094 17.2188 79.7891 17.3984C79.9688 17.5781 80.1094 17.7891 80.2109 18.0312C80.3125 18.2734 80.3633 18.5312 80.3633 18.8047ZM120.078 22.4023H113.34V19.0391H116.691V4.15625H113.34V0.804688H120.078V22.4023Z" fill="white"/>
<path d="M19.5664 20H9.10156L14.3867 10.6602H9.10156V7.47266H19.5664L14.2812 16.8125H19.5664V20ZM24.5469 20H21.3477V7.44922H22.1211L23.1758 8.66797C23.6914 8.19922 24.2734 7.83984 24.9219 7.58984C25.5781 7.33203 26.2617 7.20312 26.9727 7.20312C27.7383 7.20312 28.4609 7.35156 29.1406 7.64844C29.8203 7.9375 30.4141 8.33984 30.9219 8.85547C31.4297 9.36328 31.8281 9.96094 32.1172 10.6484C32.4141 11.3281 32.5625 12.0547 32.5625 12.8281V20H29.3633V12.8281C29.3633 12.5 29.3008 12.1914 29.1758 11.9023C29.0508 11.6055 28.8789 11.3477 28.6602 11.1289C28.4414 10.9102 28.1875 10.7383 27.8984 10.6133C27.6094 10.4883 27.3008 10.4258 26.9727 10.4258C26.6367 10.4258 26.3203 10.4883 26.0234 10.6133C25.7266 10.7383 25.4688 10.9102 25.25 11.1289C25.0312 11.3477 24.8594 11.6055 24.7344 11.9023C24.6094 12.1914 24.5469 12.5 24.5469 12.8281V20ZM39.8398 16.9297C39.9648 16.9688 40.0898 16.9961 40.2148 17.0117C40.3398 17.0195 40.4648 17.0234 40.5898 17.0234C40.9023 17.0234 41.2031 16.9805 41.4922 16.8945C41.7812 16.8086 42.0508 16.6875 42.3008 16.5312C42.5586 16.3672 42.7852 16.1719 42.9805 15.9453C43.1836 15.7109 43.3477 15.4531 43.4727 15.1719L45.8164 17.5273C45.5195 17.9492 45.1758 18.3281 44.7852 18.6641C44.4023 19 43.9844 19.2852 43.5312 19.5195C43.0859 19.7539 42.6133 19.9297 42.1133 20.0469C41.6211 20.1719 41.1133 20.2344 40.5898 20.2344C39.707 20.2344 38.875 20.0703 38.0938 19.7422C37.3203 19.4141 36.6406 18.957 36.0547 18.3711C35.4766 17.7852 35.0195 17.0898 34.6836 16.2852C34.3477 15.4727 34.1797 14.582 34.1797 13.6133C34.1797 12.6211 34.3477 11.7148 34.6836 10.8945C35.0195 10.0742 35.4766 9.375 36.0547 8.79688C36.6406 8.21875 37.3203 7.76953 38.0938 7.44922C38.875 7.12891 39.707 6.96875 40.5898 6.96875C41.1133 6.96875 41.625 7.03125 42.125 7.15625C42.625 7.28125 43.0977 7.46094 43.543 7.69531C43.9961 7.92969 44.418 8.21875 44.8086 8.5625C45.1992 8.89844 45.543 9.27734 45.8398 9.69922L39.8398 16.9297ZM41.4805 10.332C41.332 10.2773 41.1836 10.2422 41.0352 10.2266C40.8945 10.2109 40.7461 10.2031 40.5898 10.2031C40.1523 10.2031 39.7383 10.2852 39.3477 10.4492C38.9648 10.6055 38.6289 10.832 38.3398 11.1289C38.0586 11.4258 37.8359 11.7852 37.6719 12.207C37.5078 12.6211 37.4258 13.0898 37.4258 13.6133C37.4258 13.7305 37.4297 13.8633 37.4375 14.0117C37.4531 14.1602 37.4727 14.3125 37.4961 14.4688C37.5273 14.6172 37.5625 14.7617 37.6016 14.9023C37.6406 15.043 37.6914 15.168 37.7539 15.2773L41.4805 10.332ZM50.6797 24.7812H47.457V7.44922H48.2305L49.5078 8.96094C49.7969 8.6875 50.1133 8.42969 50.457 8.1875C50.8008 7.94531 51.1562 7.73828 51.5234 7.56641C51.8984 7.38672 52.2852 7.24609 52.6836 7.14453C53.082 7.04297 53.4844 6.99219 53.8906 6.99219C54.7734 6.99219 55.6016 7.15234 56.375 7.47266C57.1562 7.78516 57.8359 8.23047 58.4141 8.80859C59 9.38672 59.4609 10.0859 59.7969 10.9062C60.1328 11.7188 60.3008 12.6211 60.3008 13.6133C60.3008 14.6445 60.1328 15.5742 59.7969 16.4023C59.4609 17.2227 59 17.9219 58.4141 18.5C57.8359 19.0703 57.1562 19.5078 56.375 19.8125C55.6016 20.1172 54.7734 20.2695 53.8906 20.2695C53.6094 20.2695 53.3281 20.2383 53.0469 20.1758C52.7734 20.1133 52.5 20.0312 52.2266 19.9297C51.9609 19.8203 51.6953 19.6992 51.4297 19.5664C51.1719 19.4336 50.9219 19.2969 50.6797 19.1562V24.7812ZM57.0898 13.6133C57.0898 13.082 57.0039 12.6055 56.832 12.1836C56.668 11.7617 56.4414 11.4062 56.1523 11.1172C55.8633 10.8203 55.5234 10.5938 55.1328 10.4375C54.7422 10.2812 54.3281 10.2031 53.8906 10.2031C53.4531 10.2031 53.0391 10.2812 52.6484 10.4375C52.2656 10.5938 51.9297 10.8203 51.6406 11.1172C51.3516 11.4062 51.1211 11.7617 50.9492 12.1836C50.7852 12.6055 50.7031 13.082 50.7031 13.6133C50.7031 14.1211 50.7852 14.5859 50.9492 15.0078C51.1211 15.4297 51.3516 15.7891 51.6406 16.0859C51.9297 16.3828 52.2656 16.6133 52.6484 16.7773C53.0391 16.9414 53.4531 17.0234 53.8906 17.0234C54.3281 17.0234 54.7422 16.9414 55.1328 16.7773C55.5234 16.6133 55.8633 16.3828 56.1523 16.0859C56.4414 15.7891 56.668 15.4297 56.832 15.0078C57.0039 14.5859 57.0898 14.1211 57.0898 13.6133ZM74.6445 13.6133C74.6445 14.5977 74.4766 15.4961 74.1406 16.3086C73.8047 17.1211 73.3477 17.8203 72.7695 18.4062C72.1914 18.9844 71.5117 19.4336 70.7305 19.7539C69.957 20.0742 69.125 20.2344 68.2344 20.2344C67.3516 20.2344 66.5195 20.0703 65.7383 19.7422C64.9648 19.4141 64.2852 18.957 63.6992 18.3711C63.1211 17.7852 62.6641 17.0898 62.3281 16.2852C61.9922 15.4727 61.8242 14.582 61.8242 13.6133V2.45703H65.0352V8.31641C65.207 8.09766 65.4141 7.90234 65.6562 7.73047C65.9062 7.55859 66.1719 7.41797 66.4531 7.30859C66.7422 7.19922 67.0391 7.11719 67.3438 7.0625C67.6484 7 67.9453 6.96875 68.2344 6.96875C69.125 6.96875 69.957 7.13672 70.7305 7.47266C71.5117 7.80078 72.1914 8.26172 72.7695 8.85547C73.3477 9.44922 73.8047 10.1523 74.1406 10.9648C74.4766 11.7695 74.6445 12.6523 74.6445 13.6133ZM71.4219 13.6133C71.4219 13.1289 71.3359 12.6797 71.1641 12.2656C71 11.8438 70.7734 11.4805 70.4844 11.1758C70.1953 10.8711 69.8555 10.6328 69.4648 10.4609C69.082 10.2891 68.6719 10.2031 68.2344 10.2031C67.7969 10.2031 67.3828 10.3008 66.9922 10.4961C66.6094 10.6836 66.2734 10.9375 65.9844 11.2578C65.6953 11.5703 65.4688 11.9336 65.3047 12.3477C65.1406 12.7539 65.0586 13.1758 65.0586 13.6133C65.0586 14.0977 65.1406 14.5469 65.3047 14.9609C65.4688 15.375 65.6953 15.7344 65.9844 16.0391C66.2734 16.3438 66.6094 16.5859 66.9922 16.7656C67.3828 16.9375 67.7969 17.0234 68.2344 17.0234C68.6719 17.0234 69.082 16.9375 69.4648 16.7656C69.8555 16.5859 70.1953 16.3438 70.4844 16.0391C70.7734 15.7344 71 15.375 71.1641 14.9609C71.3359 14.5469 71.4219 14.0977 71.4219 13.6133Z" fill="#1BE253"/>
<path d="M98.7148 20H95.5273V12.0312C95.5273 11.8125 95.4844 11.6055 95.3984 11.4102C95.3203 11.2148 95.207 11.043 95.0586 10.8945C94.9102 10.7461 94.7383 10.6328 94.543 10.5547C94.3477 10.4688 94.1406 10.4258 93.9219 10.4258C93.7031 10.4258 93.4961 10.4688 93.3008 10.5547C93.1133 10.6328 92.9453 10.7461 92.7969 10.8945C92.6562 11.043 92.543 11.2148 92.457 11.4102C92.3789 11.6055 92.3398 11.8125 92.3398 12.0312V20H89.1406V12.0312C89.1406 11.8125 89.0977 11.6055 89.0117 11.4102C88.9336 11.2148 88.8203 11.043 88.6719 10.8945C88.5234 10.7461 88.3516 10.6328 88.1562 10.5547C87.9609 10.4688 87.7539 10.4258 87.5352 10.4258C87.3164 10.4258 87.1094 10.4688 86.9141 10.5547C86.7266 10.6328 86.5586 10.7461 86.4102 10.8945C86.2695 11.043 86.1562 11.2148 86.0703 11.4102C85.9922 11.6055 85.9531 11.8125 85.9531 12.0312V20H82.7539V7.44922H83.5273L84.3945 8.41016C84.8398 8.03516 85.3281 7.74609 85.8594 7.54297C86.3984 7.33203 86.957 7.22656 87.5352 7.22656C88.1211 7.22656 88.6914 7.33594 89.2461 7.55469C89.8086 7.77344 90.3008 8.15234 90.7227 8.69141C90.918 8.42578 91.1406 8.19922 91.3906 8.01172C91.6406 7.82422 91.9023 7.67188 92.1758 7.55469C92.457 7.4375 92.7461 7.35547 93.043 7.30859C93.3398 7.25391 93.6328 7.22656 93.9219 7.22656C94.5859 7.22656 95.207 7.35156 95.7852 7.60156C96.3711 7.85156 96.8789 8.19531 97.3086 8.63281C97.7461 9.0625 98.0898 9.57031 98.3398 10.1562C98.5898 10.7422 98.7148 11.3672 98.7148 12.0312V20ZM106.051 16.9297C106.176 16.9688 106.301 16.9961 106.426 17.0117C106.551 17.0195 106.676 17.0234 106.801 17.0234C107.113 17.0234 107.414 16.9805 107.703 16.8945C107.992 16.8086 108.262 16.6875 108.512 16.5312C108.77 16.3672 108.996 16.1719 109.191 15.9453C109.395 15.7109 109.559 15.4531 109.684 15.1719L112.027 17.5273C111.73 17.9492 111.387 18.3281 110.996 18.6641C110.613 19 110.195 19.2852 109.742 19.5195C109.297 19.7539 108.824 19.9297 108.324 20.0469C107.832 20.1719 107.324 20.2344 106.801 20.2344C105.918 20.2344 105.086 20.0703 104.305 19.7422C103.531 19.4141 102.852 18.957 102.266 18.3711C101.688 17.7852 101.23 17.0898 100.895 16.2852C100.559 15.4727 100.391 14.582 100.391 13.6133C100.391 12.6211 100.559 11.7148 100.895 10.8945C101.23 10.0742 101.688 9.375 102.266 8.79688C102.852 8.21875 103.531 7.76953 104.305 7.44922C105.086 7.12891 105.918 6.96875 106.801 6.96875C107.324 6.96875 107.836 7.03125 108.336 7.15625C108.836 7.28125 109.309 7.46094 109.754 7.69531C110.207 7.92969 110.629 8.21875 111.02 8.5625C111.41 8.89844 111.754 9.27734 112.051 9.69922L106.051 16.9297ZM107.691 10.332C107.543 10.2773 107.395 10.2422 107.246 10.2266C107.105 10.2109 106.957 10.2031 106.801 10.2031C106.363 10.2031 105.949 10.2852 105.559 10.4492C105.176 10.6055 104.84 10.832 104.551 11.1289C104.27 11.4258 104.047 11.7852 103.883 12.207C103.719 12.6211 103.637 13.0898 103.637 13.6133C103.637 13.7305 103.641 13.8633 103.648 14.0117C103.664 14.1602 103.684 14.3125 103.707 14.4688C103.738 14.6172 103.773 14.7617 103.812 14.9023C103.852 15.043 103.902 15.168 103.965 15.2773L107.691 10.332Z" fill="#16D34B"/>
</svg>
