<svg width="100%" height="100%" fill="none" viewBox="0 0 1280 720" xmlns="http://www.w3.org/2000/svg" preserveAspectRatio="none">
<g clip-path="url(#clip0_68_174)">
<path d="M1280 0H0V720H1280V0Z" fill="#000D17"/>
<path d="M1280 421.8C1210.03 417.36 1139.91 412.92 1091.7 383.64C1043.34 354.24 1016.75 300.12 969.244 262.2C921.742 224.28 853.191 202.44 818.062 161.4C783.076 120.48 781.511 60.24 780.089 0H1280V421.8Z" fill="#1BE253"/>
<path d="M0 298.2C71.9644 297.48 143.929 296.76 191.289 330.24C238.791 363.84 261.689 431.52 285.582 479.04C309.618 526.56 334.649 553.68 370.489 590.52C406.471 627.24 453.262 673.68 499.911 720H0V298.2Z" fill="#1BE253"/>
</g>
<defs>
<clipPath id="clip0_68_174">
<rect width="1280" height="720" fill="white"/>
</clipPath>
</defs>
</svg>
