<svg id="visual" viewBox="0 0 900 600" width="100%" height="100%" xmlns="http://www.w3.org/2000/svg" xmlns:xlink="http://www.w3.org/1999/xlink" version="1.1" preserveAspectRatio="none"><rect x="0" y="0" width="100%" height="100%" fill="#00050a"></rect><path d="M0 433L21.5 428.5C43 424 86 415 128.8 409.8C171.7 404.7 214.3 403.3 257.2 405.3C300 407.3 343 412.7 385.8 419.2C428.7 425.7 471.3 433.3 514.2 426.5C557 419.7 600 398.3 642.8 384.8C685.7 371.3 728.3 365.7 771.2 376.8C814 388 857 416 878.5 430L900 444L900 601L878.5 601C857 601 814 601 771.2 601C728.3 601 685.7 601 642.8 601C600 601 557 601 514.2 601C471.3 601 428.7 601 385.8 601C343 601 300 601 257.2 601C214.3 601 171.7 601 128.8 601C86 601 43 601 21.5 601L0 601Z" fill="#4200ff"></path><path d="M0 473L21.5 459.7C43 446.3 86 419.7 128.8 413.8C171.7 408 214.3 423 257.2 432.3C300 441.7 343 445.3 385.8 439.8C428.7 434.3 471.3 419.7 514.2 423.3C557 427 600 449 642.8 450C685.7 451 728.3 431 771.2 428.5C814 426 857 441 878.5 448.5L900 456L900 601L878.5 601C857 601 814 601 771.2 601C728.3 601 685.7 601 642.8 601C600 601 557 601 514.2 601C471.3 601 428.7 601 385.8 601C343 601 300 601 257.2 601C214.3 601 171.7 601 128.8 601C86 601 43 601 21.5 601L0 601Z" fill="#0078ff"></path><path d="M0 443L21.5 442.7C43 442.3 86 441.7 128.8 441.8C171.7 442 214.3 443 257.2 448.3C300 453.7 343 463.3 385.8 474.2C428.7 485 471.3 497 514.2 494C557 491 600 473 642.8 464.5C685.7 456 728.3 457 771.2 462.7C814 468.3 857 478.7 878.5 483.8L900 489L900 601L878.5 601C857 601 814 601 771.2 601C728.3 601 685.7 601 642.8 601C600 601 557 601 514.2 601C471.3 601 428.7 601 385.8 601C343 601 300 601 257.2 601C214.3 601 171.7 601 128.8 601C86 601 43 601 21.5 601L0 601Z" fill="#00adff"></path><path d="M0 490L21.5 495.3C43 500.7 86 511.3 128.8 515.5C171.7 519.7 214.3 517.3 257.2 512.8C300 508.3 343 501.7 385.8 498.3C428.7 495 471.3 495 514.2 501.5C557 508 600 521 642.8 519.7C685.7 518.3 728.3 502.7 771.2 502.5C814 502.3 857 517.7 878.5 525.3L900 533L900 601L878.5 601C857 601 814 601 771.2 601C728.3 601 685.7 601 642.8 601C600 601 557 601 514.2 601C471.3 601 428.7 601 385.8 601C343 601 300 601 257.2 601C214.3 601 171.7 601 128.8 601C86 601 43 601 21.5 601L0 601Z" fill="#00d3e3"></path><path d="M0 555L21.5 552.7C43 550.3 86 545.7 128.8 540.7C171.7 535.7 214.3 530.3 257.2 530.5C300 530.7 343 536.3 385.8 539.2C428.7 542 471.3 542 514.2 541C557 540 600 538 642.8 540.8C685.7 543.7 728.3 551.3 771.2 556.5C814 561.7 857 564.3 878.5 565.7L900 567L900 601L878.5 601C857 601 814 601 771.2 601C728.3 601 685.7 601 642.8 601C600 601 557 601 514.2 601C471.3 601 428.7 601 385.8 601C343 601 300 601 257.2 601C214.3 601 171.7 601 128.8 601C86 601 43 601 21.5 601L0 601Z" fill="#1be253"></path></svg>