<svg width="1467" height="358" viewBox="0 0 1467 358" fill="none" xmlns="http://www.w3.org/2000/svg">
<path d="M59.2031 272.469H99.5625V312.828H18.5625V53.6562H99.5625V93.875H59.2031V272.469ZM971.859 269.656C971.859 273.031 971.25 276.219 970.031 279.219C968.812 282.125 967.125 284.656 964.969 286.812C962.812 288.969 960.281 290.656 957.375 291.875C954.469 293.188 951.328 293.844 947.953 293.844C944.672 293.844 941.531 293.188 938.531 291.875C935.625 290.656 933.047 288.969 930.797 286.812C928.641 284.656 926.906 282.125 925.594 279.219C924.375 276.219 923.766 273.031 923.766 269.656C923.766 266.375 924.375 263.281 925.594 260.375C926.906 257.469 928.641 254.938 930.797 252.781C933.047 250.625 935.625 248.938 938.531 247.719C941.531 246.406 944.672 245.75 947.953 245.75C951.328 245.75 954.469 246.406 957.375 247.719C960.281 248.938 962.812 250.625 964.969 252.781C967.125 254.938 968.812 257.469 970.031 260.375C971.25 263.281 971.859 266.375 971.859 269.656ZM1448.44 312.828H1367.58V272.469H1407.8V93.875H1367.58V53.6562H1448.44V312.828Z" fill="white"/>
<path d="M242.297 284H116.719L180.141 171.922H116.719V133.672H242.297L178.875 245.75H242.297V284ZM302.062 284H263.672V133.391H272.953L285.609 148.016C291.797 142.391 298.781 138.078 306.562 135.078C314.438 131.984 322.641 130.438 331.172 130.438C340.359 130.438 349.031 132.219 357.188 135.781C365.344 139.25 372.469 144.078 378.562 150.266C384.656 156.359 389.438 163.531 392.906 171.781C396.469 179.938 398.25 188.656 398.25 197.938V284H359.859V197.938C359.859 194 359.109 190.297 357.609 186.828C356.109 183.266 354.047 180.172 351.422 177.547C348.797 174.922 345.75 172.859 342.281 171.359C338.812 169.859 335.109 169.109 331.172 169.109C327.141 169.109 323.344 169.859 319.781 171.359C316.219 172.859 313.125 174.922 310.5 177.547C307.875 180.172 305.812 183.266 304.312 186.828C302.812 190.297 302.062 194 302.062 197.938V284ZM485.578 247.156C487.078 247.625 488.578 247.953 490.078 248.141C491.578 248.234 493.078 248.281 494.578 248.281C498.328 248.281 501.938 247.766 505.406 246.734C508.875 245.703 512.109 244.25 515.109 242.375C518.203 240.406 520.922 238.062 523.266 235.344C525.703 232.531 527.672 229.438 529.172 226.062L557.297 254.328C553.734 259.391 549.609 263.938 544.922 267.969C540.328 272 535.312 275.422 529.875 278.234C524.531 281.047 518.859 283.156 512.859 284.562C506.953 286.062 500.859 286.812 494.578 286.812C483.984 286.812 474 284.844 464.625 280.906C455.344 276.969 447.188 271.484 440.156 264.453C433.219 257.422 427.734 249.078 423.703 239.422C419.672 229.672 417.656 218.984 417.656 207.359C417.656 195.453 419.672 184.578 423.703 174.734C427.734 164.891 433.219 156.5 440.156 149.562C447.188 142.625 455.344 137.234 464.625 133.391C474 129.547 483.984 127.625 494.578 127.625C500.859 127.625 507 128.375 513 129.875C519 131.375 524.672 133.531 530.016 136.344C535.453 139.156 540.516 142.625 545.203 146.75C549.891 150.781 554.016 155.328 557.578 160.391L485.578 247.156ZM505.266 167.984C503.484 167.328 501.703 166.906 499.922 166.719C498.234 166.531 496.453 166.438 494.578 166.438C489.328 166.438 484.359 167.422 479.672 169.391C475.078 171.266 471.047 173.984 467.578 177.547C464.203 181.109 461.531 185.422 459.562 190.484C457.594 195.453 456.609 201.078 456.609 207.359C456.609 208.766 456.656 210.359 456.75 212.141C456.938 213.922 457.172 215.75 457.453 217.625C457.828 219.406 458.25 221.141 458.719 222.828C459.188 224.516 459.797 226.016 460.547 227.328L505.266 167.984ZM615.656 341.375H576.984V133.391H586.266L601.594 151.531C605.062 148.25 608.859 145.156 612.984 142.25C617.109 139.344 621.375 136.859 625.781 134.797C630.281 132.641 634.922 130.953 639.703 129.734C644.484 128.516 649.312 127.906 654.188 127.906C664.781 127.906 674.719 129.828 684 133.672C693.375 137.422 701.531 142.766 708.469 149.703C715.5 156.641 721.031 165.031 725.062 174.875C729.094 184.625 731.109 195.453 731.109 207.359C731.109 219.734 729.094 230.891 725.062 240.828C721.031 250.672 715.5 259.062 708.469 266C701.531 272.844 693.375 278.094 684 281.75C674.719 285.406 664.781 287.234 654.188 287.234C650.812 287.234 647.438 286.859 644.062 286.109C640.781 285.359 637.5 284.375 634.219 283.156C631.031 281.844 627.844 280.391 624.656 278.797C621.562 277.203 618.562 275.562 615.656 273.875V341.375ZM692.578 207.359C692.578 200.984 691.547 195.266 689.484 190.203C687.516 185.141 684.797 180.875 681.328 177.406C677.859 173.844 673.781 171.125 669.094 169.25C664.406 167.375 659.438 166.438 654.188 166.438C648.938 166.438 643.969 167.375 639.281 169.25C634.688 171.125 630.656 173.844 627.188 177.406C623.719 180.875 620.953 185.141 618.891 190.203C616.922 195.266 615.938 200.984 615.938 207.359C615.938 213.453 616.922 219.031 618.891 224.094C620.953 229.156 623.719 233.469 627.188 237.031C630.656 240.594 634.688 243.359 639.281 245.328C643.969 247.297 648.938 248.281 654.188 248.281C659.438 248.281 664.406 247.297 669.094 245.328C673.781 243.359 677.859 240.594 681.328 237.031C684.797 233.469 687.516 229.156 689.484 224.094C691.547 219.031 692.578 213.453 692.578 207.359ZM903.234 207.359C903.234 219.172 901.219 229.953 897.188 239.703C893.156 249.453 887.672 257.844 880.734 264.875C873.797 271.812 865.641 277.203 856.266 281.047C846.984 284.891 837 286.812 826.312 286.812C815.719 286.812 805.734 284.844 796.359 280.906C787.078 276.969 778.922 271.484 771.891 264.453C764.953 257.422 759.469 249.078 755.438 239.422C751.406 229.672 749.391 218.984 749.391 207.359V73.4844H787.922V143.797C789.984 141.172 792.469 138.828 795.375 136.766C798.375 134.703 801.562 133.016 804.938 131.703C808.406 130.391 811.969 129.406 815.625 128.75C819.281 128 822.844 127.625 826.312 127.625C837 127.625 846.984 129.641 856.266 133.672C865.641 137.609 873.797 143.141 880.734 150.266C887.672 157.391 893.156 165.828 897.188 175.578C901.219 185.234 903.234 195.828 903.234 207.359ZM864.562 207.359C864.562 201.547 863.531 196.156 861.469 191.188C859.5 186.125 856.781 181.766 853.312 178.109C849.844 174.453 845.766 171.594 841.078 169.531C836.484 167.469 831.562 166.438 826.312 166.438C821.062 166.438 816.094 167.609 811.406 169.953C806.812 172.203 802.781 175.25 799.312 179.094C795.844 182.844 793.125 187.203 791.156 192.172C789.188 197.047 788.203 202.109 788.203 207.359C788.203 213.172 789.188 218.562 791.156 223.531C793.125 228.5 795.844 232.812 799.312 236.469C802.781 240.125 806.812 243.031 811.406 245.188C816.094 247.25 821.062 248.281 826.312 248.281C831.562 248.281 836.484 247.25 841.078 245.188C845.766 243.031 849.844 240.125 853.312 236.469C856.781 232.812 859.5 228.5 861.469 223.531C863.531 218.562 864.562 213.172 864.562 207.359ZM1192.08 284H1153.83V188.375C1153.83 185.75 1153.31 183.266 1152.28 180.922C1151.34 178.578 1149.98 176.516 1148.2 174.734C1146.42 172.953 1144.36 171.594 1142.02 170.656C1139.67 169.625 1137.19 169.109 1134.56 169.109C1131.94 169.109 1129.45 169.625 1127.11 170.656C1124.86 171.594 1122.84 172.953 1121.06 174.734C1119.38 176.516 1118.02 178.578 1116.98 180.922C1116.05 183.266 1115.58 185.75 1115.58 188.375V284H1077.19V188.375C1077.19 185.75 1076.67 183.266 1075.64 180.922C1074.7 178.578 1073.34 176.516 1071.56 174.734C1069.78 172.953 1067.72 171.594 1065.38 170.656C1063.03 169.625 1060.55 169.109 1057.92 169.109C1055.3 169.109 1052.81 169.625 1050.47 170.656C1048.22 171.594 1046.2 172.953 1044.42 174.734C1042.73 176.516 1041.38 178.578 1040.34 180.922C1039.41 183.266 1038.94 185.75 1038.94 188.375V284H1000.55V133.391H1009.83L1020.23 144.922C1025.58 140.422 1031.44 136.953 1037.81 134.516C1044.28 131.984 1050.98 130.719 1057.92 130.719C1064.95 130.719 1071.8 132.031 1078.45 134.656C1085.2 137.281 1091.11 141.828 1096.17 148.297C1098.52 145.109 1101.19 142.391 1104.19 140.141C1107.19 137.891 1110.33 136.062 1113.61 134.656C1116.98 133.25 1120.45 132.266 1124.02 131.703C1127.58 131.047 1131.09 130.719 1134.56 130.719C1142.53 130.719 1149.98 132.219 1156.92 135.219C1163.95 138.219 1170.05 142.344 1175.2 147.594C1180.45 152.75 1184.58 158.844 1187.58 165.875C1190.58 172.906 1192.08 180.406 1192.08 188.375V284ZM1280.11 247.156C1281.61 247.625 1283.11 247.953 1284.61 248.141C1286.11 248.234 1287.61 248.281 1289.11 248.281C1292.86 248.281 1296.47 247.766 1299.94 246.734C1303.41 245.703 1306.64 244.25 1309.64 242.375C1312.73 240.406 1315.45 238.062 1317.8 235.344C1320.23 232.531 1322.2 229.438 1323.7 226.062L1351.83 254.328C1348.27 259.391 1344.14 263.938 1339.45 267.969C1334.86 272 1329.84 275.422 1324.41 278.234C1319.06 281.047 1313.39 283.156 1307.39 284.562C1301.48 286.062 1295.39 286.812 1289.11 286.812C1278.52 286.812 1268.53 284.844 1259.16 280.906C1249.88 276.969 1241.72 271.484 1234.69 264.453C1227.75 257.422 1222.27 249.078 1218.23 239.422C1214.2 229.672 1212.19 218.984 1212.19 207.359C1212.19 195.453 1214.2 184.578 1218.23 174.734C1222.27 164.891 1227.75 156.5 1234.69 149.562C1241.72 142.625 1249.88 137.234 1259.16 133.391C1268.53 129.547 1278.52 127.625 1289.11 127.625C1295.39 127.625 1301.53 128.375 1307.53 129.875C1313.53 131.375 1319.2 133.531 1324.55 136.344C1329.98 139.156 1335.05 142.625 1339.73 146.75C1344.42 150.781 1348.55 155.328 1352.11 160.391L1280.11 247.156ZM1299.8 167.984C1298.02 167.328 1296.23 166.906 1294.45 166.719C1292.77 166.531 1290.98 166.438 1289.11 166.438C1283.86 166.438 1278.89 167.422 1274.2 169.391C1269.61 171.266 1265.58 173.984 1262.11 177.547C1258.73 181.109 1256.06 185.422 1254.09 190.484C1252.12 195.453 1251.14 201.078 1251.14 207.359C1251.14 208.766 1251.19 210.359 1251.28 212.141C1251.47 213.922 1251.7 215.75 1251.98 217.625C1252.36 219.406 1252.78 221.141 1253.25 222.828C1253.72 224.516 1254.33 226.016 1255.08 227.328L1299.8 167.984Z" fill="#1BE253"/>
</svg>
